<?xml version="1.0" encoding="UTF-8"?>
<svg version="1.1" xmlns="http://www.w3.org/2000/svg" width="1000" height="1000">
<path d="M0 0 C3.875 1.75 3.875 1.75 5 4 C6.37100785 12.0954749 6.72525858 18.11404176 2.46484375 25.23046875 C0.28372991 29.35422798 -0.87712149 33.72335845 -2.12353516 38.20458984 C-3.49300545 42.93944801 -5.41978188 46.79418991 -8 51 C-7.01 51 -6.02 51 -5 51 C-5.45573477 57.86800301 -7.50950798 63.12331552 -10.4375 69.3125 C-10.88270996 70.27309326 -11.32791992 71.23368652 -11.78662109 72.22338867 C-15.11161192 79.31806594 -18.69355375 86.25660828 -22.38183594 93.16748047 C-29.96324669 107.38934674 -35.93495107 121.69405528 -41 137 C-41.99 137 -42.98 137 -44 137 C-44.24105469 137.78890625 -44.48210937 138.5778125 -44.73046875 139.390625 C-46.34026816 143.96740856 -48.30627927 148.33540883 -50.3125 152.75 C-50.71549316 153.64307861 -51.11848633 154.53615723 -51.53369141 155.45629883 C-53.55725568 159.91702338 -55.62634954 164.33460782 -57.875 168.6875 C-59.77449904 172.36940567 -61.07775388 176.06873269 -62.31640625 180.015625 C-63.21040408 182.61077298 -64.36560843 184.7971244 -66 187 C-66.66 187 -67.32 187 -68 187 C-67.87818359 188.25103516 -67.87818359 188.25103516 -67.75390625 189.52734375 C-68.07002362 193.98811114 -69.70831756 196.76336343 -71.9375 200.5625 C-75.36564346 206.43500004 -75.36564346 206.43500004 -77 213 C-78.32 213.33 -79.64 213.66 -81 214 C-82.87066772 220.85911497 -80.87055854 226.62512325 -78 233 C-77.00385848 234.00384365 -76.00395513 235.00397083 -75 236 C-73.9375 238.48828125 -73.9375 238.48828125 -73 241.3125 C-71.90281377 244.5154398 -70.81361413 247.35945846 -69.25 250.375 C-67.91769172 253.17284738 -67.73023608 254.94267556 -68 258 C-67.34 258 -66.68 258 -66 258 C-65.67 258.99 -65.34 259.98 -65 261 C-64.34 261.33 -63.68 261.66 -63 262 C-62.56548704 263.93859628 -62.13129131 265.87726459 -61.69921875 267.81640625 C-60.74495352 270.79648592 -59.07083074 272.83143608 -57.1640625 275.2734375 C-55.36580621 277.94064985 -54.81465649 280.91594329 -54 284 C-53.525625 284.59683594 -53.05125 285.19367188 -52.5625 285.80859375 C-50.60225092 288.55784308 -49.98320195 291.11687048 -49.125 294.375 C-47.9389716 298.47384144 -47.23647333 300.72315317 -44.4375 304 C-41.15727744 308.037197 -40.75238764 311.93263795 -39.7421875 316.9609375 C-38.84764716 320.6238448 -37.18685069 322.95166267 -35 326 C-32.57303547 331.48344886 -30.218761 336.90633583 -31 343 C-31.33 343.66 -31.66 344.32 -32 345 C-32.27095876 347.26659157 -32.44487997 349.53281159 -32.62109375 351.80859375 C-33 354 -33 354 -35 357 C-39.36302328 356.51521964 -41.2314802 355.39366943 -44 352 C-44.5775 350.906875 -45.155 349.81375 -45.75 348.6875 C-47.848713 344.78272322 -50.79064229 342.42351856 -54.17578125 339.6328125 C-56.35727561 337.68021156 -57.58604997 335.54511005 -59 333 C-59.99 332.2884375 -59.99 332.2884375 -61 331.5625 C-63 330 -63 330 -64.2109375 327.3515625 C-66.44916098 323.15855868 -69.32615573 320.193553 -72.625 316.8125 C-81.88357482 307.08579499 -90.01383472 296.78651202 -97.86523438 285.89941406 C-101.65346782 280.68137201 -105.66929985 275.77754445 -110 271 C-113.6641531 272.22138437 -113.81492961 273.03726441 -115.5 276.375 C-117.06556336 279.45594842 -118.53595927 281.60372039 -121 284 C-122.18657404 285.63153931 -123.35079313 287.27942822 -124.5 288.9375 C-127.64879846 293.34581785 -131.02402922 297.27837667 -134.75 301.1875 C-138.83458947 305.48695843 -141.7701173 309.47838571 -144 315 C-145.32 315 -146.64 315 -148 315 C-148.37705078 316.33804688 -148.37705078 316.33804688 -148.76171875 317.703125 C-152.62906853 327.99979129 -163.41790054 334.72305462 -172 341 C-173.54291794 342.16501136 -175.0848101 343.33138446 -176.625 344.5 C-182.61627907 349 -182.61627907 349 -185.9375 349 C-189 348 -189 348 -191.3125 345.625 C-194.66544396 338.42237964 -194.42535923 330.69693985 -193 323 C-192.67 322.67 -192.34 322.34 -192 322 C-191.50050903 319.58882085 -191.10070108 317.16692739 -190.6953125 314.73828125 C-190 312 -190 312 -188.546875 309.12890625 C-186.83131195 305.65879008 -186.00237101 302.39070744 -185.125 298.625 C-183.84980931 293.48378461 -182.31907076 289.30979337 -179.265625 284.96875 C-177.7848887 282.66538243 -176.82721885 280.35644303 -175.8125 277.8125 C-170.80861086 265.40473727 -165.03257677 253.28226819 -158.25 241.75 C-150.57567352 228.78300416 -150.57567352 228.78300416 -148.2109375 214.3046875 C-149.20131225 211.62431546 -150.49099678 209.43117185 -152 207 C-153.5525198 204.18353285 -155.05337572 201.33989193 -156.5625 198.5 C-157.16433105 197.39458862 -157.16433105 197.39458862 -157.77832031 196.2668457 C-160.28111113 191.61234133 -162.19091466 187.18917279 -163.26953125 181.98046875 C-163.91089685 179.80950642 -163.91089685 179.80950642 -165.9921875 178.03515625 C-168.29215326 175.703868 -168.66856543 174.41560198 -169.3125 171.25 C-170.53552801 166.19571849 -172.350166 161.70841971 -174.5 157 C-178.48452272 148.16921218 -180.94697955 139.95055192 -181.69140625 130.2578125 C-182.1482457 126.9153669 -183.66881027 124.08836018 -185 121 C-186.88245483 112.98022668 -187.51587255 104.68492546 -188.30297852 96.49902344 C-188.37959717 95.7155957 -188.45621582 94.93216797 -188.53515625 94.125 C-188.600979 93.42632812 -188.66680176 92.72765625 -188.73461914 92.0078125 C-188.9622342 89.98135369 -188.9622342 89.98135369 -189.51733398 87.97265625 C-190.93856231 82.16409537 -190.56107057 74.45294609 -188 69 C-184.9381802 66.00707115 -181.76968608 65.02240109 -177.53125 64.96875 C-170.68304891 65.89875262 -166.64489347 69.0818775 -162 74 C-161.50113281 74.50273437 -161.00226562 75.00546875 -160.48828125 75.5234375 C-152.47131374 84.17736955 -146.90308184 94.61048948 -142.46875 105.43457031 C-140.56216291 110.00093634 -138.40029542 113.67696141 -135.06640625 117.32421875 C-133.62377881 119.59120473 -133.99181564 121.34826845 -134 124 C-133.03214058 125.96328083 -133.03214058 125.96328083 -131.5625 127.8125 C-127.96179008 132.87411848 -125.0214025 138.22200554 -122.07250977 143.67895508 C-120.20714966 147.47352902 -120.20714966 147.47352902 -117 150 C-116.67 150.99 -116.34 151.98 -116 153 C-113.03134491 150.45543849 -111.6380249 147.51005335 -110 144 C-109.34 144 -108.68 144 -108 144 C-107.95875 143.175 -107.9175 142.35 -107.875 141.5 C-106.497829 135.99131598 -102.97160992 131.97160992 -99 128 C-98.62875 126.6696875 -98.62875 126.6696875 -98.25 125.3125 C-96.8937661 121.71848015 -95.27947561 119.80365311 -92.6328125 117.1015625 C-91.1204617 115.15504401 -90.21652372 113.45432412 -89.17578125 111.23828125 C-87.03741334 106.81273623 -84.22467477 103.29693858 -81.0625 99.5625 C-77.20080126 94.88738577 -73.87043916 90.40960947 -71.13671875 84.97265625 C-69.3984534 81.95607892 -67.03759673 79.58152936 -64.68359375 77.03515625 C-62.94086792 74.92852016 -61.78774114 72.87560611 -60.5625 70.4375 C-58.83633478 67.12011406 -57.18684359 65.11795118 -54.25 62.8125 C-50.5027086 59.78232628 -48.06612352 56.31743865 -45.5625 52.25 C-38.38305799 40.68295299 -29.63424374 31.52774198 -19.96508789 22.00292969 C-14.84712863 16.93608423 -10.08450239 11.84268265 -5.69140625 6.12890625 C-3.93268999 3.91527955 -2.03310132 1.96160765 0 0 Z M-178 72 C-176.78969026 74.57327433 -176.78969026 74.57327433 -175 77 C-173.68 77 -172.36 77 -171 77 C-169.72428516 79.1847753 -168.45439327 81.37261619 -167.1875 83.5625 C-166.83107422 84.17158203 -166.47464844 84.78066406 -166.10742188 85.40820312 C-164.33132583 88.4878559 -162.73310521 91.52567987 -161.390625 94.8203125 C-160.19523114 98.1149655 -160.19523114 98.1149655 -157.5625 100.3125 C-154.49083525 103.53400206 -153.42109959 106.53502864 -151.9921875 110.6953125 C-150.96231147 113.08754421 -149.83275049 114.2079773 -148 116 C-147.87625 116.94875 -147.7525 117.8975 -147.625 118.875 C-147.26579384 122.17334381 -147.26579384 122.17334381 -144.625 124.375 C-141.96854834 127.03145166 -141.10595965 129.00542913 -139.9296875 132.5078125 C-136.60015777 141.43319053 -131.72535346 149.71277688 -126.51171875 157.64453125 C-124.77292831 160.35380938 -123.3423864 163.07833549 -122 166 C-120.79198667 164.26781992 -120.79198667 164.26781992 -120 162 C-120.51031655 159.64431917 -120.51031655 159.64431917 -121.7109375 157.25390625 C-122.12746582 156.3407666 -122.54399414 155.42762695 -122.97314453 154.48681641 C-123.43575684 153.52179199 -123.89836914 152.55676758 -124.375 151.5625 C-124.83890137 150.56911621 -125.30280273 149.57573242 -125.78076172 148.55224609 C-128.8348118 142.12437755 -132.18051432 136.12045263 -136.0546875 130.15234375 C-140.24562318 123.36100823 -143.54151128 116.05908323 -147.02636719 108.88793945 C-148.75405783 105.37515845 -150.49769181 102.02535139 -152.75 98.8125 C-155.31283575 95.08767324 -157.63367165 91.26521693 -159.9375 87.375 C-163.82671085 81.01692107 -167.90732192 74.94597456 -175 72 C-175.99 72 -176.98 72 -178 72 Z M-62 127 C-61 129 -61 129 -61 129 Z M-63 129 C-64.36645701 131.59836136 -65.71830669 134.20265556 -67.0625 136.8125 C-67.45244141 137.55048828 -67.84238281 138.28847656 -68.24414062 139.04882812 C-68.60830078 139.76103516 -68.97246094 140.47324219 -69.34765625 141.20703125 C-69.68804932 141.8616333 -70.02844238 142.51623535 -70.37915039 143.19067383 C-71.27187717 145.19606112 -71.27187717 145.19606112 -70 148 C-68.63301613 145.21443118 -67.28365462 142.42068672 -65.9375 139.625 C-65.54755859 138.8309375 -65.15761719 138.036875 -64.75585938 137.21875 C-64.39169922 136.45820313 -64.02753906 135.69765625 -63.65234375 134.9140625 C-63.31195068 134.2123291 -62.97155762 133.5105957 -62.62084961 132.78759766 C-62.41596924 132.19769043 -62.21108887 131.6077832 -62 131 C-62.33 130.34 -62.66 129.68 -63 129 Z M-169 141 C-168 143 -168 143 -168 143 Z M-72 148 C-71 150 -71 150 -71 150 Z M-164 154 C-163 156 -163 156 -163 156 Z M-163 156 C-162 158 -162 158 -162 158 Z M-162 158 C-161.55296014 162.47883696 -161.55296014 162.47883696 -159 166 C-159.44703986 161.52116304 -159.44703986 161.52116304 -162 158 Z M-86 160 C-85 162 -85 162 -85 162 Z M-88 164 C-87 166 -87 166 -87 166 Z M-79 164 C-79 167 -79 167 -79 167 Z M-159 166 C-158 168 -158 168 -158 168 Z M-90 167 C-90.33 168.32 -90.66 169.64 -91 171 C-90.34 169.68 -89.68 168.36 -89 167 C-89.33 167 -89.66 167 -90 167 Z M-157 170 C-157 170.66 -157 171.32 -157 172 C-156.34 171.67 -155.68 171.34 -155 171 C-155.66 170.67 -156.32 170.34 -157 170 Z M-155 174 C-153.92598892 176.91517292 -153.22189824 178.77810176 -151 181 C-151.27034634 178.56282742 -151.27034634 178.56282742 -152 176 C-152.99 175.34 -153.98 174.68 -155 174 Z M-137 178 C-136.67 179.65 -136.34 181.3 -136 183 C-135.67 181.68 -135.34 180.36 -135 179 C-135.66 178.67 -136.32 178.34 -137 178 Z M-151 181 C-150 183 -150 183 -150 183 Z M-150 183 C-150 183.99 -150 184.98 -150 186 C-150.99 186.495 -150.99 186.495 -152 187 C-151.21625 187.45375 -150.4325 187.9075 -149.625 188.375 C-147 190 -147 190 -145 192 C-145.4793247 187.68607774 -146.7457985 185.83430453 -150 183 Z M-145 193 C-144 195 -144 195 -144 195 Z M-144 195 C-144.33 196.32 -144.66 197.64 -145 199 C-143.68 199 -142.36 199 -141 199 C-141.66 197.68 -142.32 196.36 -143 195 C-143.33 195 -143.66 195 -144 195 Z M-128 249 C-127.67 250.32 -127.34 251.64 -127 253 C-126.67 251.68 -126.34 250.36 -126 249 C-126.66 249 -127.32 249 -128 249 Z M-129 253 C-129 256 -129 256 -129 256 Z M-131 256 C-131 259 -131 259 -131 259 Z M-103 266 C-101.02 268.97 -101.02 268.97 -99 272 C-98.67 271.34 -98.34 270.68 -98 270 C-98.89163577 267.88316159 -98.89163577 267.88316159 -100 266 C-100.99 266 -101.98 266 -103 266 Z M-87 285 C-86 287 -86 287 -86 287 Z M-86 287 C-84.64978174 291.41889613 -82.73884332 293.34345343 -79 296 C-80.35021826 291.58110387 -82.26115668 289.65654657 -86 287 Z M-186 316 C-186.33 318.31 -186.66 320.62 -187 323 C-184.41222792 319.94419026 -184.41222792 319.94419026 -184 316 C-184.66 316 -185.32 316 -186 316 Z " fill="#000000" transform="translate(895,286)"/>
<path d="M0 0 C5.3893909 -0.04976354 10.77864544 -0.08589047 16.16821289 -0.10986328 C17.99831475 -0.11986648 19.82840084 -0.13347335 21.65844727 -0.15087891 C24.30228588 -0.17537891 26.94591157 -0.18654013 29.58984375 -0.1953125 C30.39646957 -0.20563507 31.2030954 -0.21595764 32.03416443 -0.22659302 C40.81256625 -0.22829284 49.20461088 1.07809227 56 7 C62.1689412 14.83746375 62.7516014 22.19650343 62 32 C60.27631366 38.89474537 55.35465745 42.71163797 50 47 C49.34 47.66 48.68 48.32 48 49 C48.4846875 49.95366455 48.969375 50.9073291 49.46875 51.88989258 C51.26388619 55.42590114 53.05110049 58.96586328 54.8359375 62.50708008 C55.60981889 64.03974828 56.38585003 65.57133299 57.1640625 67.10180664 C58.28170436 69.30073849 59.39157987 71.5034396 60.5 73.70703125 C60.84998047 74.39150833 61.19996094 75.07598541 61.56054688 75.78120422 C63.02714741 78.71336787 64 80.67503182 64 84 C59.38 84 54.76 84 50 84 C48.93131604 82.00239961 47.86372585 80.00420793 46.80102539 78.00341797 C45.88661772 76.28266154 44.96777802 74.56425348 44.04467773 72.84814453 C41.87721629 68.77245291 39.82630199 64.74342088 38.1640625 60.43359375 C37.88892822 59.74531494 37.61379395 59.05703613 37.33032227 58.34790039 C36.60407668 56.48183024 35.92739001 54.59669201 35.25390625 52.7109375 C34.13822266 51.36902344 34.13822266 51.36902344 33 50 C29.37 49.67 25.74 49.34 22 49 C22 60.55 22 72.1 22 84 C17.71 84 13.42 84 9 84 C9 68.16 9 52.32 9 36 C25.1875 35.75 25.1875 35.75 30.27026367 35.70214844 C31.61119996 35.67276238 32.95210574 35.64193366 34.29296875 35.609375 C34.97991821 35.60824707 35.66686768 35.60711914 36.37463379 35.60595703 C41.16298723 35.46418235 43.62599805 34.38389871 47 31 C48.60086627 27.79826746 48.49917089 24.47422941 48 21 C46.20636089 18.1899654 44.98119065 16.49059532 42 15 C40.64247704 14.88295036 39.27974112 14.82322811 37.91748047 14.79467773 C37.07675995 14.77473251 36.23603943 14.75478729 35.36984253 14.73423767 C34.00727829 14.70916893 34.00727829 14.70916893 32.6171875 14.68359375 C31.22308151 14.6524221 31.22308151 14.6524221 29.80081177 14.62062073 C26.8256179 14.55512354 23.85033423 14.49623948 20.875 14.4375 C18.86066772 14.39431494 16.84634459 14.35070066 14.83203125 14.30664062 C9.88811337 14.19944197 4.94410497 14.09817499 0 14 C0 9.38 0 4.76 0 0 Z " fill="#000000" transform="translate(475,446)"/>
<path d="M0 0 C16.83 0 33.66 0 51 0 C51 4.62 51 9.24 51 14 C38.46 14 25.92 14 13 14 C13 21.26 13 28.52 13 36 C21.91 36 30.82 36 40 36 C40 40.29 40 44.58 40 49 C31.09 49 22.18 49 13 49 C13 56.26 13 63.52 13 71 C25.54 71 38.08 71 51 71 C51 75.62 51 80.24 51 85 C34.17 85 17.34 85 0 85 C0 56.95 0 28.9 0 0 Z " fill="#000000" transform="translate(580,446)"/>
<path d="M0 0 C1.93166016 0.01740234 1.93166016 0.01740234 3.90234375 0.03515625 C5.19269531 0.04417969 6.48304688 0.05320312 7.8125 0.0625 C8.81152344 0.07410156 9.81054688 0.08570313 10.83984375 0.09765625 C13.8103881 9.44098886 16.77514949 18.78613511 19.73270226 28.13358879 C21.10644017 32.4747184 22.48210325 36.8152175 23.86230469 41.15429688 C25.19616187 45.3479319 26.52478058 49.54319446 27.84990311 53.73959732 C28.35436445 55.33400676 28.86065671 56.92783819 29.36887741 58.52105331 C31.96081084 66.65052633 34.39948015 74.66750786 35.83984375 83.09765625 C31.21984375 83.09765625 26.59984375 83.09765625 21.83984375 83.09765625 C19.85984375 76.82765625 17.87984375 70.55765625 15.83984375 64.09765625 C7.58984375 63.76765625 -0.66015625 63.43765625 -9.16015625 63.09765625 C-10.15015625 66.72765625 -11.14015625 70.35765625 -12.16015625 74.09765625 C-13.13839144 77.10482367 -14.13079395 80.10760387 -15.16015625 83.09765625 C-19.78015625 83.09765625 -24.40015625 83.09765625 -29.16015625 83.09765625 C-27.43557396 74.29212732 -24.67269963 65.82609437 -21.96875 57.28515625 C-21.45809634 55.66381321 -20.94768875 54.04239264 -20.43751526 52.42089844 C-19.37328598 49.04138394 -18.30640598 45.66272155 -17.23754883 42.28466797 C-15.86528768 37.94712323 -14.49927754 33.60763974 -13.13514614 29.26753235 C-12.08487287 25.92807661 -11.0315867 22.58957737 -9.97734261 19.25137329 C-9.4720884 17.65039783 -8.96772636 16.04914054 -8.46426201 14.44760132 C-7.76363032 12.22060583 -7.05901847 9.99491007 -6.35327148 7.76953125 C-6.14494186 7.10466202 -5.93661224 6.43979279 -5.7219696 5.754776 C-3.92696398 0.12135241 -3.92696398 0.12135241 0 0 Z M2.83984375 23.09765625 C1.49943272 27.19954573 0.16873183 31.30452061 -1.16015625 35.41015625 C-1.54171875 36.57740234 -1.92328125 37.74464844 -2.31640625 38.94726562 C-2.67734375 40.06552734 -3.03828125 41.18378906 -3.41015625 42.3359375 C-3.91289062 43.88341675 -3.91289062 43.88341675 -4.42578125 45.4621582 C-5.29436704 48.12332345 -5.29436704 48.12332345 -5.16015625 51.09765625 C0.77984375 51.09765625 6.71984375 51.09765625 12.83984375 51.09765625 C11.55579901 46.80357176 10.26301726 42.51246837 8.96484375 38.22265625 C8.41763672 36.38767578 8.41763672 36.38767578 7.859375 34.515625 C7.50488281 33.34902344 7.15039062 32.18242187 6.78515625 30.98046875 C6.46047363 29.90168457 6.13579102 28.82290039 5.80126953 27.71142578 C5.00531991 24.98344586 5.00531991 24.98344586 2.83984375 23.09765625 Z " fill="#000000" transform="translate(162.16015625,446.90234375)"/>
<path d="M0 0 C1.16080078 0.00451172 2.32160156 0.00902344 3.51757812 0.01367188 C6.3659078 0.0253934 9.21421074 0.04332677 12.0625 0.0625 C12.0625 4.6825 12.0625 9.3025 12.0625 14.0625 C10.09925781 14.08828125 8.13601563 14.1140625 6.11328125 14.140625 C3.53383187 14.1969039 0.95440565 14.25425127 -1.625 14.3125 C-3.56536133 14.33376953 -3.56536133 14.33376953 -5.54492188 14.35546875 C-7.41567383 14.40380859 -7.41567383 14.40380859 -9.32421875 14.453125 C-10.47108154 14.47407227 -11.61794434 14.49501953 -12.79956055 14.51660156 C-16.58051904 15.1743642 -18.2551213 16.35552904 -20.9375 19.0625 C-22.2684316 22.46219811 -22.2684316 22.46219811 -21.9375 26.0625 C-17.80314204 31.98841307 -11.00009914 33.86409164 -4.5234375 36.3984375 C11.36524974 42.82876274 11.36524974 42.82876274 15.2421875 50.3515625 C17.21194681 56.86114804 17.35073535 65.20796449 14.5625 71.5 C11.15752227 77.13457168 5.50578407 82.36689893 -0.9375 84.0625 C-5.15895545 84.88281665 -9.13198132 85.18062152 -13.4296875 85.16015625 C-15.22792969 85.15532227 -15.22792969 85.15532227 -17.0625 85.15039062 C-18.91875 85.13782227 -18.91875 85.13782227 -20.8125 85.125 C-22.07320312 85.12048828 -23.33390625 85.11597656 -24.6328125 85.11132812 C-27.73439545 85.0995797 -30.83595388 85.08164535 -33.9375 85.0625 C-33.9375 80.4425 -33.9375 75.8225 -33.9375 71.0625 C-31.82988281 71.03671875 -29.72226563 71.0109375 -27.55078125 70.984375 C-25.49864626 70.9459084 -23.44675865 70.90076365 -21.39477539 70.85498047 C-19.97399808 70.82683986 -18.55306622 70.80559092 -17.13208008 70.79150391 C-15.08334641 70.76997606 -13.036457 70.72328486 -10.98828125 70.671875 C-9.75762939 70.65092773 -8.52697754 70.62998047 -7.2590332 70.60839844 C-3.38171749 69.9711564 -1.71166788 68.79102227 1.0625 66.0625 C2.69506404 62.79737193 2.86869998 59.56651627 2.0625 56.0625 C-3.74784252 51.03206923 -10.30010343 48.7940575 -17.46679688 46.27734375 C-24.12039576 43.79049138 -30.50833705 40.36388115 -34.1184082 33.97143555 C-36.95790724 27.35383705 -36.46280674 21.00644785 -34.046875 14.33984375 C-31.06437469 8.2173167 -26.40451509 3.35290118 -19.9375 1.0625 C-13.31917873 -0.23063197 -6.72214711 -0.04968045 0 0 Z " fill="#000000" transform="translate(263.9375,445.9375)"/>
<path d="M0 0 C5.24697519 -0.04977792 10.4938101 -0.0858971 15.7409668 -0.10986328 C17.52256671 -0.11986411 19.30415044 -0.13346916 21.08569336 -0.15087891 C23.66003433 -0.17538957 26.23415657 -0.18654248 28.80859375 -0.1953125 C29.98572182 -0.21079636 29.98572182 -0.21079636 31.18663025 -0.22659302 C40.20769474 -0.22838584 47.98199267 1.05419422 54.62890625 7.60546875 C60.43964052 13.94827025 61.43065644 19.61389593 61.2421875 28.10546875 C60.63072461 35.41343646 56.49149603 41.32205894 51 46 C44.91150704 49.4735128 39.45167626 49.36094454 32.5625 49.1875 C27.3340625 49.0946875 27.3340625 49.0946875 22 49 C22 60.55 22 72.1 22 84 C17.71 84 13.42 84 9 84 C9 68.16 9 52.32 9 36 C24.6875 35.75 24.6875 35.75 29.61206055 35.70214844 C31.54239136 35.65622559 31.54239136 35.65622559 33.51171875 35.609375 C35.48338013 35.5779541 35.48338013 35.5779541 37.49487305 35.54589844 C41.49750457 34.92251722 43.15993541 33.82980209 46 31 C47.60086627 27.79826746 47.49917089 24.47422941 47 21 C45.20636089 18.1899654 43.98119065 16.49059532 41 15 C37.9395806 14.84254174 34.898581 14.74133123 31.8359375 14.68359375 C30.92872955 14.66281265 30.02152161 14.64203156 29.08682251 14.62062073 C26.1829602 14.55512865 23.27900595 14.49624186 20.375 14.4375 C18.40884458 14.39431445 16.44269853 14.35070015 14.4765625 14.30664062 C9.65113638 14.19944761 4.8256176 14.09817919 0 14 C0 9.38 0 4.76 0 0 Z " fill="#000000" transform="translate(312,446)"/>
<path d="M0 0 C13.86 0 27.72 0 42 0 C42 4.62 42 9.24 42 14 C37.05 14 32.1 14 27 14 C27 32.81 27 51.62 27 71 C31.95 71 36.9 71 42 71 C42 75.62 42 80.24 42 85 C28.14 85 14.28 85 0 85 C0 80.38 0 75.76 0 71 C4.62 71 9.24 71 14 71 C14 52.19 14 33.38 14 14 C9.38 14 4.76 14 0 14 C0 9.38 0 4.76 0 0 Z " fill="#000000" transform="translate(405,446)"/>
</svg>
